<svg width="31" height="24" viewBox="0 0 31 24" fill="none" xmlns="http://www.w3.org/2000/svg">
<path d="M15.93 12.3106C16.6586 11.6585 17.243 10.8521 17.6436 9.94592C18.0441 9.03976 18.2514 8.05512 18.2514 7.05882C18.2514 5.18671 17.5321 3.39127 16.2517 2.06748C14.9713 0.743696 13.2347 2.5258e-07 11.4239 2.5258e-07C9.61317 2.5258e-07 7.87658 0.743696 6.59619 2.06748C5.31579 3.39127 4.59647 5.18671 4.59647 7.05882C4.59646 8.05512 4.80376 9.03976 5.20429 9.94592C5.60482 10.8521 6.18921 11.6585 6.91781 12.3106C5.00631 13.2055 3.38455 14.6506 2.24644 16.4732C1.10832 18.2958 0.50201 20.4188 0.5 22.5882C0.5 22.9627 0.643864 23.3217 0.899943 23.5865C1.15602 23.8513 1.50334 24 1.86549 24C2.22764 24 2.57496 23.8513 2.83104 23.5865C3.08712 23.3217 3.23098 22.9627 3.23098 22.5882C3.23098 20.3417 4.09416 18.1872 5.63064 16.5986C7.16711 15.0101 9.25102 14.1176 11.4239 14.1176C13.5968 14.1176 15.6807 15.0101 17.2172 16.5986C18.7537 18.1872 19.6169 20.3417 19.6169 22.5882C19.6169 22.9627 19.7607 23.3217 20.0168 23.5865C20.2729 23.8513 20.6202 24 20.9824 24C21.3445 24 21.6918 23.8513 21.9479 23.5865C22.204 23.3217 22.3478 22.9627 22.3478 22.5882C22.3458 20.4188 21.7395 18.2958 20.6014 16.4732C19.4633 14.6506 17.8415 13.2055 15.93 12.3106ZM11.4239 11.2941C10.6137 11.2941 9.82171 11.0457 9.14805 10.5803C8.47439 10.115 7.94933 9.4535 7.63928 8.6796C7.32923 7.9057 7.2481 7.05413 7.40617 6.23256C7.56423 5.41099 7.95438 4.65634 8.52728 4.06402C9.10018 3.4717 9.8301 3.06833 10.6247 2.90491C11.4194 2.74149 12.243 2.82536 12.9916 3.14592C13.7401 3.46648 14.3799 4.00933 14.83 4.70582C15.2801 5.40231 15.5204 6.22116 15.5204 7.05882C15.5204 8.18209 15.0888 9.25936 14.3206 10.0536C13.5523 10.8479 12.5104 11.2941 11.4239 11.2941ZM24.7238 11.7459C25.5977 10.7285 26.1685 9.47161 26.3676 8.1266C26.5667 6.78159 26.3855 5.40575 25.8459 4.16471C25.3063 2.92366 24.4313 1.8703 23.3262 1.13142C22.2211 0.392541 20.9329 -0.000363671 19.6169 2.5258e-07C19.2547 2.5258e-07 18.9074 0.148739 18.6513 0.413496C18.3952 0.678254 18.2514 1.03734 18.2514 1.41177C18.2514 1.78619 18.3952 2.14528 18.6513 2.41003C18.9074 2.67479 19.2547 2.82353 19.6169 2.82353C20.7033 2.82353 21.7453 3.26975 22.5135 4.06402C23.2817 4.85829 23.7133 5.93555 23.7133 7.05882C23.7114 7.80034 23.5212 8.52833 23.1618 9.17001C22.8023 9.81168 22.2862 10.3445 21.6651 10.7153C21.4627 10.836 21.2936 11.0085 21.174 11.2161C21.0545 11.4237 20.9885 11.6596 20.9824 11.9012C20.9766 12.1408 21.0301 12.3781 21.1376 12.5905C21.2451 12.8029 21.4031 12.9835 21.5968 13.1153L22.1294 13.4824L22.3069 13.5812C23.9528 14.3883 25.3414 15.6649 26.3091 17.2607C27.2768 18.8564 27.7832 20.7049 27.7688 22.5882C27.7688 22.9627 27.9127 23.3217 28.1688 23.5865C28.4249 23.8513 28.7722 24 29.1343 24C29.4965 24 29.8438 23.8513 30.0999 23.5865C30.356 23.3217 30.4998 22.9627 30.4998 22.5882C30.511 20.4218 29.9862 18.2884 28.9752 16.3907C27.9643 14.493 26.5008 12.8941 24.7238 11.7459Z" fill="#612D1C"/>
</svg>
