<svg width="18" height="18" viewBox="0 0 18 18" fill="none" xmlns="http://www.w3.org/2000/svg">
<path d="M12.1489 4.60269C13.046 4.90517 13.6834 5.75531 13.7631 6.75556M8.79875 16.87C6.97086 15.6826 5.27041 14.285 3.72782 12.7024C2.64332 11.5626 1.81769 10.1731 1.31419 8.64034C0.408121 5.66694 1.46647 2.26296 4.42831 1.25557C5.98494 0.726609 7.68501 1.02894 8.99671 2.06798C10.3089 1.0302 12.0084 0.72798 13.5651 1.25557C16.527 2.26296 17.5929 5.66694 16.6868 8.64034C16.1833 10.1731 15.3577 11.5626 14.2732 12.7024C12.7306 14.285 11.0302 15.6826 9.20229 16.87L9.00432 17L8.79875 16.87Z" stroke="#612D1C" stroke-width="1.5" stroke-linecap="round" stroke-linejoin="round"/>
</svg>
