<svg width="30" height="30" viewBox="0 0 30 30" fill="none" xmlns="http://www.w3.org/2000/svg">
<path d="M29.9866 20.017V1.67195C29.9853 1.42145 29.9206 1.17443 29.7971 0.949225C29.6737 0.724024 29.4947 0.526432 29.2736 0.371122C29.0556 0.214391 28.8008 0.103073 28.528 0.0453518C28.2552 -0.0123694 27.9714 -0.0150265 27.6973 0.0375756L10.8086 3.37304C10.3917 3.4566 10.0193 3.66414 9.75319 3.96134C9.48703 4.25854 9.343 4.62758 9.34492 5.00741V18.9163C8.06388 18.3788 6.62128 18.225 5.23353 18.4779C3.84578 18.7308 2.58772 19.3768 1.64807 20.3189C0.708422 21.2611 0.137853 22.4487 0.0219591 23.7035C-0.0939349 24.9582 0.251095 26.2126 1.00529 27.2783C1.75948 28.3441 2.88218 29.1637 4.20494 29.6144C5.52771 30.065 6.97922 30.1223 8.34174 29.7777C9.70425 29.4331 10.9043 28.7051 11.7618 27.703C12.6194 26.7009 13.0882 25.4786 13.098 24.2197C13.1174 23.9309 13.1174 23.6413 13.098 23.3524V6.3416L26.2336 3.75661V15.5808C24.9518 15.043 23.5084 14.8893 22.1199 15.1428C20.7315 15.3962 19.473 16.0432 18.5336 16.9865C17.5942 17.9298 17.0244 19.1185 16.91 20.3741C16.7955 21.6297 17.1425 22.8844 17.8988 23.9498C18.6552 25.0152 19.78 25.8338 21.1044 26.2826C22.4288 26.7314 23.8813 26.7862 25.2438 26.4388C26.6062 26.0914 27.8051 25.3605 28.6603 24.3559C29.5155 23.3513 29.9809 22.1272 29.9866 20.8675C30.0045 20.5842 30.0045 20.3003 29.9866 20.017Z" fill="#612D1C"/>
</svg>
