<svg width="30" height="30" viewBox="0 0 30 30" fill="none" xmlns="http://www.w3.org/2000/svg">
<path d="M28.8246 12.336C28.1754 7.40962 24.2796 3.75 19.6864 3.75H10.3136C5.72036 3.75 1.82571 7.40962 1.17536 12.336C1.10143 12.8974 0 21.048 0 21.615C0 24.1744 1.91571 26.25 4.27821 26.25C5.89929 26.25 7.38 25.2577 8.10536 23.6873L10.7143 18.375H19.2857L21.8946 23.6873C22.6189 25.2577 24.1007 26.25 25.7218 26.25C28.0843 26.25 30 24.1744 30 21.615C30 21.048 28.8986 12.8974 28.8246 12.336ZM21.4286 7.125C22.2171 7.125 22.8568 7.79663 22.8568 8.62463C22.8568 9.45263 22.2171 10.1243 21.4286 10.1243C20.64 10.1243 20.0004 9.45263 20.0004 8.62463C20.0004 7.79663 20.64 7.125 21.4286 7.125ZM11.7857 12.75H9.64286V15H7.5V12.75H5.35714V10.5H7.5V8.25H9.64286V10.5H11.7857V12.75ZM18.5711 13.1246C17.7825 13.1246 17.1429 12.453 17.1429 11.625C17.1429 10.797 17.7825 10.1254 18.5711 10.1254C19.3596 10.1254 19.9993 10.797 19.9993 11.625C20.0004 12.453 19.3607 13.1246 18.5711 13.1246ZM21.4286 16.125C20.64 16.125 20.0004 15.4534 20.0004 14.6254C20.0004 13.7974 20.64 13.1257 21.4286 13.1257C22.2171 13.1257 22.8568 13.7974 22.8568 14.6254C22.8568 15.4534 22.2171 16.125 21.4286 16.125ZM24.2861 13.1246C23.4975 13.1246 22.8579 12.453 22.8579 11.625C22.8579 10.797 23.4975 10.1254 24.2861 10.1254C25.0746 10.1254 25.7143 10.797 25.7143 11.625C25.7143 12.453 25.0746 13.1246 24.2861 13.1246Z" fill="#612D1C"/>
</svg>
