<svg width="30" height="30" viewBox="0 0 30 30" fill="none" xmlns="http://www.w3.org/2000/svg">
<path d="M1.5 5C2.32969 5 3 5.63839 3 6.42857V17.8571H13.5V10.7143C13.5 9.92411 14.1703 9.28571 15 9.28571H25.5C27.9844 9.28571 30 11.2054 30 13.5714V23.5714C30 24.3616 29.3297 25 28.5 25C27.6703 25 27 24.3616 27 23.5714V22.1429H16.5H15H3V23.5714C3 24.3616 2.32969 25 1.5 25C0.670312 25 0 24.3616 0 23.5714V6.42857C0 5.63839 0.670312 5 1.5 5ZM8.25 9.28571C9.24456 9.28571 10.1984 9.66199 10.9017 10.3318C11.6049 11.0015 12 11.9099 12 12.8571C12 13.8043 11.6049 14.7128 10.9017 15.3825C10.1984 16.0523 9.24456 16.4286 8.25 16.4286C7.25544 16.4286 6.30161 16.0523 5.59835 15.3825C4.89509 14.7128 4.5 13.8043 4.5 12.8571C4.5 11.9099 4.89509 11.0015 5.59835 10.3318C6.30161 9.66199 7.25544 9.28571 8.25 9.28571Z" fill="#612D1C"/>
</svg>
