<svg width="30" height="30" viewBox="0 0 30 30" fill="none" xmlns="http://www.w3.org/2000/svg">
<path d="M15.9375 6.96753C11.332 6.96753 7.43555 9.55359 6.11133 13.1188C8.08008 12.2652 10.3008 11.7881 12.6562 11.7881H17.8125C18.3281 11.7881 18.75 12.1497 18.75 12.5916C18.75 13.0335 18.3281 13.395 17.8125 13.395H16.875H12.6562C11.6836 13.395 10.7402 13.4904 9.82617 13.6662C8.30859 13.9624 6.90234 14.4897 5.64258 15.2078C2.24414 17.1511 0 20.4703 0 24.2414V25.0448C0 25.7127 0.626953 26.25 1.40625 26.25C2.18555 26.25 2.8125 25.7127 2.8125 25.0448V24.2414C2.8125 21.7959 4.02539 19.5965 5.96484 18.0549C7.125 21.8462 11.1504 24.6431 15.9375 24.6431H15.9961C23.7363 24.608 30 18.07 30 10.0105C30 7.87139 29.5605 5.83769 28.7637 4.00485C28.6113 3.65837 28.0195 3.67344 27.8145 3.99983C26.7129 5.76739 24.5332 6.96753 22.0312 6.96753H15.9375Z" fill="#612D1C"/>
</svg>
