<svg width="30" height="30" viewBox="0 0 30 30" fill="none" xmlns="http://www.w3.org/2000/svg">
<path d="M3.67383 13.0891C3.39258 13.1125 3.10547 13.1243 2.8125 13.1243C1.89844 13.1243 1.00781 13.007 0.164062 12.7784C1.125 6.27198 6.27539 1.11958 12.7793 0.158269C13.0078 1.00235 13.125 1.89332 13.125 2.80774C13.125 3.09496 13.1133 3.38218 13.0898 3.66941C13.0488 4.18523 13.4297 4.63658 13.9453 4.68347C14.4609 4.73037 14.9121 4.3435 14.959 3.82767C14.9883 3.49356 15 3.15358 15 2.8136C15 1.84643 14.8887 0.9027 14.6719 0.0058655C14.7773 0.0058655 14.8887 3.83325e-06 15 3.83325e-06C23.2852 -0.00585783 30 6.71161 30 15C30 15.1114 30 15.2169 29.9941 15.3283C29.0918 15.1172 28.1543 15 27.1875 15C26.8477 15 26.5078 15.0117 26.1738 15.041C25.6582 15.0821 25.2715 15.5393 25.3184 16.0551C25.3652 16.5709 25.8164 16.9578 26.332 16.9109C26.6133 16.8875 26.9004 16.8757 27.1934 16.8757C28.1074 16.8757 28.998 16.993 29.8418 17.2216C28.875 23.728 23.7246 28.8804 17.2207 29.8417C16.9922 28.9977 16.875 28.1067 16.875 27.1923C16.875 26.905 16.8867 26.6178 16.9102 26.3306C16.9512 25.8148 16.5703 25.3634 16.0547 25.3165C15.5391 25.2696 15.0879 25.6565 15.041 26.1723C15.0117 26.5064 15 26.8464 15 27.1864C15 28.1536 15.1113 29.0973 15.3281 29.9941C15.2227 29.9941 15.1113 30 15 30C6.71484 30.0059 0 23.2884 0 15C0 14.8886 0 14.7831 0.00585938 14.6717C0.902344 14.8886 1.8457 15 2.8125 15C3.15234 15 3.49219 14.9883 3.82617 14.959C4.3418 14.9179 4.72852 14.4607 4.68164 13.9449C4.63477 13.4291 4.18359 13.0422 3.66797 13.0891H3.67383ZM7.10742 12.1864C6.63867 12.4033 6.42773 12.9601 6.64453 13.4291C6.86133 13.898 7.41797 14.109 7.88672 13.8921C10.5352 12.6729 12.6738 10.5393 13.8926 7.88394C14.1094 7.41501 13.9043 6.85815 13.4297 6.64127C12.9551 6.42439 12.4043 6.62955 12.1875 7.10434C11.1562 9.34936 9.3457 11.1606 7.10742 12.1864ZM23.3496 16.5651C23.1328 16.0961 22.5762 15.8851 22.1074 16.102C19.459 17.3212 17.3203 19.4549 16.1016 22.1102C15.8848 22.5791 16.0898 23.136 16.5645 23.3529C17.0391 23.5698 17.5898 23.3646 17.8066 22.8898C18.8379 20.6448 20.6484 18.8335 22.8867 17.8077C23.3555 17.5909 23.5664 17.034 23.3496 16.5651Z" fill="#612D1C"/>
</svg>
