<svg width="120" height="120" viewBox="0 0 120 120" fill="none" xmlns="http://www.w3.org/2000/svg">
<g filter="url(#filter0_d_2108_3062)">
<rect x="10" y="10" width="100" height="100" rx="4" fill="white" shape-rendering="crispEdges"/>
<path d="M49.2653 34.744H50.9773V36.888C50.9773 37.8053 50.8973 38.7013 50.7373 39.576C50.5773 40.44 50.3266 41.2453 49.9852 41.992C49.6546 42.7387 49.2333 43.4053 48.7213 43.992C48.2093 44.568 47.6066 45.0267 46.9133 45.368L45.6333 43.656C46.2626 43.368 46.8013 42.984 47.2493 42.504C47.7079 42.024 48.0866 41.48 48.3853 40.872C48.6839 40.264 48.9026 39.624 49.0413 38.952C49.1906 38.2693 49.2653 37.5813 49.2653 36.888V34.744ZM49.6813 34.744H51.3933V36.888C51.3933 37.56 51.4573 38.2213 51.5853 38.872C51.7239 39.5227 51.9319 40.1413 52.2093 40.728C52.4973 41.304 52.8546 41.8213 53.2812 42.28C53.7079 42.7387 54.2199 43.1173 54.8173 43.416L53.5213 45.112C52.8599 44.7707 52.2839 44.3227 51.7933 43.768C51.3133 43.2027 50.9186 42.5573 50.6093 41.832C50.2999 41.096 50.0653 40.312 49.9053 39.48C49.7559 38.6373 49.6813 37.7733 49.6813 36.888V34.744ZM55.3933 33.608H57.5373V48.424H55.3933V33.608ZM57.0733 39.304H59.6813V41.064H57.0733V39.304ZM64.24 35.256H66V36.504C66 37.432 65.8453 38.3173 65.536 39.16C65.2373 39.992 64.7787 40.7227 64.16 41.352C63.5413 41.9707 62.752 42.4347 61.792 42.744L60.704 41.08C61.536 40.8133 62.208 40.44 62.72 39.96C63.2427 39.48 63.6267 38.9413 63.872 38.344C64.1173 37.736 64.24 37.1227 64.24 36.504V35.256ZM64.688 35.256H66.416V36.504C66.416 36.9413 66.4853 37.3787 66.624 37.816C66.7627 38.2427 66.9707 38.6533 67.248 39.048C67.536 39.432 67.8987 39.7787 68.336 40.088C68.7733 40.3973 69.2907 40.648 69.888 40.84L68.816 42.488C67.888 42.1893 67.12 41.7413 66.512 41.144C65.904 40.5467 65.4453 39.848 65.136 39.048C64.8373 38.2373 64.688 37.3893 64.688 36.504V35.256ZM61.28 34.648H69.344V36.344H61.28V34.648ZM70.832 33.608H72.96V44.296H70.832V33.608ZM63.088 46.456H73.344V48.168H63.088V46.456ZM63.088 43.336H65.216V47.304H63.088V43.336ZM46.0659 56.872H49.7779V58.584H46.0659V56.872ZM42.6579 54.216C43.4045 54.216 44.0712 54.3707 44.6579 54.68C45.2552 54.9787 45.7245 55.3947 46.0659 55.928C46.4072 56.4507 46.5779 57.0587 46.5779 57.752C46.5779 58.4347 46.4072 59.0427 46.0659 59.576C45.7245 60.1093 45.2552 60.5307 44.6579 60.84C44.0712 61.1387 43.4045 61.288 42.6579 61.288C41.9219 61.288 41.2552 61.1387 40.6579 60.84C40.0712 60.5307 39.6072 60.1093 39.2659 59.576C38.9245 59.0427 38.7539 58.4347 38.7539 57.752C38.7539 57.0587 38.9245 56.4507 39.2659 55.928C39.6072 55.3947 40.0712 54.9787 40.6579 54.68C41.2552 54.3707 41.9219 54.216 42.6579 54.216ZM42.6579 55.976C42.2952 55.976 41.9699 56.0453 41.6819 56.184C41.4045 56.3227 41.1859 56.5253 41.0259 56.792C40.8659 57.0587 40.7859 57.3787 40.7859 57.752C40.7859 58.1147 40.8659 58.4293 41.0259 58.696C41.1859 58.9627 41.4045 59.1653 41.6819 59.304C41.9699 59.4427 42.2952 59.512 42.6579 59.512C43.0205 59.512 43.3405 59.4427 43.6179 59.304C43.9059 59.1653 44.1299 58.9627 44.2899 58.696C44.4499 58.4293 44.5299 58.1147 44.5299 57.752C44.5299 57.3787 44.4499 57.0587 44.2899 56.792C44.1299 56.5253 43.9059 56.3227 43.6179 56.184C43.3405 56.0453 43.0205 55.976 42.6579 55.976ZM48.8339 53.608H50.9779V61.56H48.8339V53.608ZM41.1379 62.216H43.2499V63.608H48.8659V62.216H50.9779V68.264H41.1379V62.216ZM43.2499 65.24V66.568H48.8659V65.24H43.2499ZM53.2966 65.064H66.7206V66.792H53.2966V65.064ZM58.9286 62.248H61.0406V65.752H58.9286V62.248ZM54.8166 54.552H65.2006V59.496H56.9446V61.976H54.8326V57.832H63.0886V56.248H54.8166V54.552ZM54.8326 61.144H65.5366V62.84H54.8326V61.144ZM69.5834 60.44H79.9994V62.12H69.5834V60.44ZM68.0154 64.904H81.4394V66.632H68.0154V64.904ZM69.5834 54.808H79.8874V56.536H71.6954V61.144H69.5834V54.808ZM29.1038 90.232C28.3464 88.9947 27.7544 87.704 27.3278 86.36C26.9118 85.016 26.7038 83.5493 26.7038 81.96C26.7038 80.36 26.9118 78.888 27.3278 77.544C27.7544 76.2 28.3464 74.9093 29.1038 73.672L30.5598 74.296C29.8878 75.4693 29.3918 76.712 29.0718 78.024C28.7624 79.336 28.6078 80.648 28.6078 81.96C28.6078 83.272 28.7624 84.584 29.0718 85.896C29.3918 87.208 29.8878 88.4453 30.5598 89.608L29.1038 90.232ZM35.8386 81.656H37.9666V84.712H35.8386V81.656ZM35.8226 76.376H37.5186V76.696C37.5186 77.528 37.364 78.3067 37.0546 79.032C36.756 79.7573 36.3026 80.3867 35.6946 80.92C35.0866 81.4533 34.308 81.848 33.3586 82.104L32.4146 80.456C33.204 80.2533 33.8493 79.96 34.3506 79.576C34.852 79.1813 35.22 78.7387 35.4546 78.248C35.7 77.7467 35.8226 77.2293 35.8226 76.696V76.376ZM36.2706 76.376H37.9826V76.696C37.9826 77.208 38.1 77.704 38.3346 78.184C38.58 78.664 38.9533 79.0907 39.4546 79.464C39.9666 79.8373 40.6173 80.1253 41.4066 80.328L40.4626 81.96C39.524 81.7147 38.74 81.336 38.1106 80.824C37.492 80.3013 37.028 79.688 36.7186 78.984C36.42 78.2693 36.2706 77.5067 36.2706 76.696V76.376ZM32.8466 75.336H40.9746V77.016H32.8466V75.336ZM35.8386 73.72H37.9666V76.088H35.8386V73.72ZM42.2706 73.576H44.3986V88.44H42.2706V73.576ZM32.3506 85.688L32.1106 83.96C32.9746 83.96 33.9293 83.9547 34.9746 83.944C36.0306 83.9227 37.1133 83.88 38.2226 83.816C39.3426 83.7413 40.4253 83.6293 41.4706 83.48L41.6146 85.032C40.548 85.2347 39.4653 85.384 38.3666 85.48C37.268 85.576 36.2066 85.6347 35.1826 85.656C34.1586 85.6667 33.2146 85.6773 32.3506 85.688ZM57.4534 73.592H59.4854V88.408H57.4534V73.592ZM55.4854 79.304H57.9494V81.016H55.4854V79.304ZM54.1414 73.848H56.1094V87.72H54.1414V73.848ZM47.1814 83.32H48.2054C48.824 83.32 49.4107 83.3147 49.9654 83.304C50.52 83.2827 51.0694 83.2453 51.6134 83.192C52.168 83.128 52.7334 83.048 53.3094 82.952L53.4854 84.68C52.888 84.7867 52.3067 84.872 51.7414 84.936C51.176 85 50.6054 85.0427 50.0294 85.064C49.4534 85.0747 48.8454 85.08 48.2054 85.08H47.1814V83.32ZM47.1814 75.32H52.6374V77.032H49.2774V84.168H47.1814V75.32ZM69.8451 87V79.72C69.8451 79.3787 69.8558 78.9733 69.8771 78.504C69.8985 78.024 69.9198 77.608 69.9411 77.256H69.8611C69.7225 77.576 69.5731 77.896 69.4131 78.216C69.2531 78.536 69.0878 78.8613 68.9171 79.192L67.0771 82.136H73.4451V83.928H64.7891V82.328L69.2051 75.144H72.0371V87H69.8451ZM77.8426 75.256H79.5866V76.184C79.5866 77.1227 79.432 78.0133 79.1226 78.856C78.824 79.6987 78.3653 80.44 77.7466 81.08C77.128 81.7093 76.344 82.1787 75.3946 82.488L74.3386 80.808C75.1493 80.5413 75.8106 80.168 76.3226 79.688C76.8453 79.1973 77.2293 78.648 77.4746 78.04C77.72 77.4213 77.8426 76.8027 77.8426 76.184V75.256ZM78.2746 75.256H79.9866V76.184C79.9866 76.76 80.104 77.32 80.3386 77.864C80.5733 78.3973 80.936 78.8773 81.4266 79.304C81.928 79.7307 82.5786 80.0667 83.3786 80.312L82.3546 81.976C81.416 81.6987 80.6426 81.272 80.0346 80.696C79.4373 80.1093 78.9946 79.432 78.7066 78.664C78.4186 77.8853 78.2746 77.0587 78.2746 76.184V75.256ZM74.8826 74.584H82.8986V76.28H74.8826V74.584ZM84.0666 73.608H86.1946V82.392H84.0666V73.608ZM85.6186 77H88.1626V78.744H85.6186V77ZM81.3626 82.648C82.3973 82.648 83.288 82.7653 84.0346 83C84.7813 83.224 85.3573 83.5493 85.7626 83.976C86.168 84.4027 86.3706 84.92 86.3706 85.528C86.3706 86.136 86.168 86.6533 85.7626 87.08C85.3573 87.5173 84.7813 87.848 84.0346 88.072C83.288 88.3067 82.3973 88.424 81.3626 88.424C80.3386 88.424 79.448 88.3067 78.6906 88.072C77.944 87.848 77.3626 87.5173 76.9466 87.08C76.5413 86.6533 76.3386 86.136 76.3386 85.528C76.3386 84.92 76.5413 84.4027 76.9466 83.976C77.3626 83.5493 77.944 83.224 78.6906 83C79.448 82.7653 80.3386 82.648 81.3626 82.648ZM81.3626 84.312C80.7333 84.312 80.2053 84.3547 79.7786 84.44C79.352 84.5253 79.0266 84.6587 78.8026 84.84C78.5786 85.0213 78.4666 85.2507 78.4666 85.528C78.4666 85.816 78.5786 86.0507 78.8026 86.232C79.0266 86.4133 79.352 86.552 79.7786 86.648C80.2053 86.7333 80.7333 86.776 81.3626 86.776C81.992 86.776 82.52 86.7333 82.9466 86.648C83.384 86.552 83.7093 86.4133 83.9226 86.232C84.1466 86.0507 84.2586 85.816 84.2586 85.528C84.2586 85.2507 84.1466 85.0213 83.9226 84.84C83.7093 84.6587 83.384 84.5253 82.9466 84.44C82.52 84.3547 81.992 84.312 81.3626 84.312ZM90.8974 90.232L89.4414 89.608C90.1134 88.4453 90.604 87.208 90.9134 85.896C91.2334 84.584 91.3934 83.272 91.3934 81.96C91.3934 80.648 91.2334 79.336 90.9134 78.024C90.604 76.712 90.1134 75.4693 89.4414 74.296L90.8974 73.672C91.6547 74.9093 92.2414 76.2 92.6574 77.544C93.084 78.888 93.2974 80.36 93.2974 81.96C93.2974 83.5493 93.084 85.016 92.6574 86.36C92.2414 87.704 91.6547 88.9947 90.8974 90.232Z" fill="black"/>
</g>
<defs>
<filter id="filter0_d_2108_3062" x="0" y="0" width="120" height="120" filterUnits="userSpaceOnUse" color-interpolation-filters="sRGB">
<feFlood flood-opacity="0" result="BackgroundImageFix"/>
<feColorMatrix in="SourceAlpha" type="matrix" values="0 0 0 0 0 0 0 0 0 0 0 0 0 0 0 0 0 0 127 0" result="hardAlpha"/>
<feOffset/>
<feGaussianBlur stdDeviation="5"/>
<feComposite in2="hardAlpha" operator="out"/>
<feColorMatrix type="matrix" values="0 0 0 0 0 0 0 0 0 0 0 0 0 0 0 0 0 0 0.1 0"/>
<feBlend mode="normal" in2="BackgroundImageFix" result="effect1_dropShadow_2108_3062"/>
<feBlend mode="normal" in="SourceGraphic" in2="effect1_dropShadow_2108_3062" result="shape"/>
</filter>
</defs>
</svg>
