<svg width="16" height="16" viewBox="0 0 16 16" fill="none" xmlns="http://www.w3.org/2000/svg">
<path id="Vector" d="M13.7143 1.71429C14.0286 1.71429 14.2857 1.97143 14.2857 2.28571V13.7143C14.2857 14.0286 14.0286 14.2857 13.7143 14.2857H2.28571C1.97143 14.2857 1.71429 14.0286 1.71429 13.7143V2.28571C1.71429 1.97143 1.97143 1.71429 2.28571 1.71429H13.7143ZM2.28571 0C1.025 0 0 1.025 0 2.28571V13.7143C0 14.975 1.025 16 2.28571 16H13.7143C14.975 16 16 14.975 16 13.7143V2.28571C16 1.025 14.975 0 13.7143 0H2.28571Z" fill="black"/>
</svg>
