<svg width="16" height="16" viewBox="0 0 16 16" fill="none" xmlns="http://www.w3.org/2000/svg">
<path id="Vector" d="M2.28571 1.71429C1.97143 1.71429 1.71429 1.97143 1.71429 2.28571V13.7143C1.71429 14.0286 1.97143 14.2857 2.28571 14.2857H13.7143C14.0286 14.2857 14.2857 14.0286 14.2857 13.7143V2.28571C14.2857 1.97143 14.0286 1.71429 13.7143 1.71429H2.28571ZM0 2.28571C0 1.025 1.025 0 2.28571 0H13.7143C14.975 0 16 1.025 16 2.28571V13.7143C16 14.975 14.975 16 13.7143 16H2.28571C1.025 16 0 14.975 0 13.7143V2.28571ZM12.0357 6.32143L7.46429 10.8929C7.12857 11.2286 6.58571 11.2286 6.25357 10.8929L3.96786 8.60714C3.63214 8.27143 3.63214 7.72857 3.96786 7.39643C4.30357 7.06429 4.84643 7.06071 5.17857 7.39643L6.85714 9.075L10.8214 5.10714C11.1571 4.77143 11.7 4.77143 12.0321 5.10714C12.3643 5.44286 12.3679 5.98571 12.0321 6.31786L12.0357 6.32143Z" fill="black"/>
</svg>
