<svg width="30" height="30" viewBox="0 0 30 30" fill="none" xmlns="http://www.w3.org/2000/svg">
<path d="M17.6418 14.9984L29.4458 3.21194C29.7986 2.85909 29.9968 2.38052 29.9968 1.88151C29.9968 1.3825 29.7986 0.903933 29.4458 0.551081C29.093 0.19823 28.6144 0 28.1155 0C27.6165 0 27.138 0.19823 26.7852 0.551081L15 12.3563L3.21479 0.551081C2.86198 0.19823 2.38346 4.43041e-07 1.88451 4.46759e-07C1.38555 4.50477e-07 0.907034 0.19823 0.55422 0.551081C0.201406 0.903933 0.00319801 1.3825 0.003198 1.88151C0.003198 2.38052 0.201406 2.85909 0.55422 3.21194L12.3582 14.9984L0.55422 26.7849C0.378607 26.9591 0.239219 27.1663 0.144096 27.3947C0.0489742 27.623 0 27.8679 0 28.1153C0 28.3627 0.0489742 28.6076 0.144096 28.8359C0.239219 29.0643 0.378607 29.2715 0.55422 29.4457C0.728399 29.6214 0.935626 29.7608 1.16395 29.8559C1.39227 29.951 1.63716 30 1.88451 30C2.13185 30 2.37674 29.951 2.60507 29.8559C2.83339 29.7608 3.04061 29.6214 3.21479 29.4457L15 17.6405L26.7852 29.4457C26.9594 29.6214 27.1666 29.7608 27.3949 29.8559C27.6233 29.951 27.8682 30 28.1155 30C28.3628 30 28.6077 29.951 28.8361 29.8559C29.0644 29.7608 29.2716 29.6214 29.4458 29.4457C29.6214 29.2715 29.7608 29.0643 29.8559 28.8359C29.951 28.6076 30 28.3627 30 28.1153C30 27.8679 29.951 27.623 29.8559 27.3947C29.7608 27.1663 29.6214 26.9591 29.4458 26.7849L17.6418 14.9984Z" fill="#612D1C"/>
</svg>
