<svg width="20" height="20" viewBox="0 0 20 20" fill="none" xmlns="http://www.w3.org/2000/svg">
<path id="Vector" d="M19.0731 0.926564C18.4754 0.33308 17.6671 0 16.8246 0C15.9822 0 15.1739 0.33308 14.5762 0.926564L0.836811 14.6611C0.707937 14.7941 0.623173 14.9635 0.594046 15.1464L0.0102531 19.0004C-0.00891213 19.1239 -0.00114611 19.25 0.0330189 19.3702C0.0671838 19.4904 0.12694 19.6018 0.208192 19.6967C0.289443 19.7917 0.39027 19.8679 0.50376 19.9203C0.617251 19.9726 0.740722 19.9998 0.865712 20H0.998655L4.84822 19.4222C5.03116 19.3931 5.20068 19.3083 5.33375 19.1795L19.0731 5.42191C19.6668 4.82439 20 4.01641 20 3.17424C20 2.33207 19.6668 1.52408 19.0731 0.926564ZM4.31067 17.7292L1.90035 18.0932L2.2645 15.6838L13.5473 4.41075L15.5877 6.45041L4.31067 17.7292ZM17.8477 4.19696L16.4085 5.6357L14.3623 3.59026L15.8016 2.15152C16.0729 1.88027 16.4409 1.72789 16.8246 1.72789C17.2084 1.72789 17.5764 1.88027 17.8477 2.15152C18.1191 2.42276 18.2715 2.79064 18.2715 3.17424C18.2715 3.55783 18.1191 3.92571 17.8477 4.19696Z" fill="#231F20"/>
</svg>
