<svg width="16" height="16" viewBox="0 0 16 16" fill="none" xmlns="http://www.w3.org/2000/svg">
<path d="M5.02396 0.000130242C5.52796 0.0162644 6.01595 0.108894 6.48874 0.278155H6.53594C6.56794 0.294155 6.59194 0.311839 6.60794 0.327838C6.78474 0.387627 6.95194 0.454994 7.11194 0.547624L7.41594 0.69078C7.53593 0.758147 7.67993 0.883618 7.75993 0.934986C7.83993 0.984669 7.92793 1.03604 7.99993 1.09414C8.88872 0.379206 9.96791 -0.00815621 11.0799 0.000130242C11.5847 0.000130242 12.0887 0.0752108 12.5679 0.244471C15.5206 1.25498 16.5846 4.66545 15.6958 7.64645C15.1919 9.1698 14.3679 10.5601 13.2887 11.6961C11.7439 13.2708 10.0487 14.6687 8.22393 15.8728L8.02393 16L7.81593 15.8644C5.98475 14.6687 4.27997 13.2708 2.72078 11.6877C1.6488 10.5517 0.824005 9.1698 0.31201 7.64645C-0.591981 4.66545 0.472009 1.25498 3.45678 0.226787C3.68877 0.142578 3.92797 0.0836317 4.16797 0.0507902H4.26397C4.48877 0.0162644 4.71196 0.000130242 4.93596 0.000130242H5.02396ZM12.1519 2.66127C11.8239 2.54254 11.4639 2.72864 11.3439 3.08232C11.2319 3.436 11.4079 3.82336 11.7439 3.94883C12.2567 4.15093 12.5999 4.68229 12.5999 5.27091V5.29702C12.5847 5.48986 12.6399 5.67596 12.7519 5.81912C12.8639 5.96227 13.0319 6.04564 13.2079 6.06332C13.5359 6.05406 13.8159 5.77701 13.8399 5.42249V5.32228C13.8639 4.14251 13.1847 3.0739 12.1519 2.66127Z" fill="#200E32"/>
</svg>
