<svg width="18" height="18" viewBox="0 0 18 18" fill="none" xmlns="http://www.w3.org/2000/svg">
<path id="Vector" d="M17.388 6.795L15.687 6.228L16.488 4.626C16.5692 4.45832 16.5964 4.26957 16.5657 4.0858C16.5351 3.90202 16.4482 3.73229 16.317 3.6L14.4 1.683C14.267 1.54988 14.0956 1.46179 13.91 1.43112C13.7243 1.40044 13.5337 1.42873 13.365 1.512L11.763 2.313L11.196 0.612003C11.1361 0.434696 11.0225 0.280466 10.8708 0.170776C10.7192 0.0610864 10.5371 0.00139291 10.35 3.00018e-06H7.65C7.46132 -0.000484045 7.27726 0.05834 7.12383 0.168161C6.97041 0.277981 6.85538 0.433244 6.795 0.612003L6.228 2.313L4.626 1.512C4.45832 1.4308 4.26957 1.40365 4.0858 1.43427C3.90202 1.4649 3.73229 1.55181 3.6 1.683L1.683 3.6C1.54988 3.73299 1.46179 3.90436 1.43112 4.09001C1.40044 4.27566 1.42873 4.46626 1.512 4.635L2.313 6.237L0.612003 6.804C0.434696 6.86388 0.280466 6.97755 0.170776 7.12918C0.0610864 7.28081 0.00139291 7.46286 3.00018e-06 7.65V10.35C-0.000484045 10.5387 0.05834 10.7227 0.168161 10.8762C0.277981 11.0296 0.433244 11.1446 0.612003 11.205L2.313 11.772L1.512 13.374C1.4308 13.5417 1.40365 13.7304 1.43427 13.9142C1.4649 14.098 1.55181 14.2677 1.683 14.4L3.6 16.317C3.73299 16.4501 3.90436 16.5382 4.09001 16.5689C4.27566 16.5996 4.46626 16.5713 4.635 16.488L6.237 15.687L6.804 17.388C6.86438 17.5668 6.97941 17.722 7.13283 17.8318C7.28626 17.9417 7.47032 18.0005 7.659 18H10.359C10.5477 18.0005 10.7317 17.9417 10.8852 17.8318C11.0386 17.722 11.1536 17.5668 11.214 17.388L11.781 15.687L13.383 16.488C13.5496 16.5671 13.7365 16.5932 13.9184 16.5626C14.1003 16.532 14.2684 16.4463 14.4 16.317L16.317 14.4C16.4501 14.267 16.5382 14.0956 16.5689 13.91C16.5996 13.7243 16.5713 13.5337 16.488 13.365L15.687 11.763L17.388 11.196C17.5653 11.1361 17.7195 11.0225 17.8292 10.8708C17.9389 10.7192 17.9986 10.5371 18 10.35V7.65C18.0005 7.46132 17.9417 7.27726 17.8318 7.12383C17.722 6.97041 17.5668 6.85538 17.388 6.795ZM16.2 9.702L15.12 10.062C14.8716 10.1426 14.6438 10.2762 14.4522 10.4536C14.2607 10.631 14.11 10.848 14.0107 11.0894C13.9114 11.3309 13.8658 11.5911 13.8771 11.8519C13.8883 12.1127 13.9562 12.368 14.076 12.6L14.589 13.626L13.599 14.616L12.6 14.076C12.3692 13.961 12.1164 13.897 11.8587 13.8882C11.601 13.8794 11.3444 13.9261 11.1063 14.0251C10.8682 14.124 10.6541 14.273 10.4786 14.462C10.3031 14.6509 10.1702 14.8753 10.089 15.12L9.729 16.2H8.298L7.938 15.12C7.85744 14.8716 7.72382 14.6438 7.54641 14.4522C7.369 14.2607 7.15204 14.11 6.91058 14.0107C6.66912 13.9114 6.40895 13.8658 6.1481 13.8771C5.88726 13.8883 5.63199 13.9562 5.4 14.076L4.374 14.589L3.384 13.599L3.924 12.6C4.04379 12.368 4.11167 12.1127 4.12294 11.8519C4.13422 11.5911 4.08861 11.3309 3.98929 11.0894C3.88996 10.848 3.7393 10.631 3.54775 10.4536C3.3562 10.2762 3.12835 10.1426 2.88 10.062L1.8 9.702V8.298L2.88 7.938C3.12835 7.85744 3.3562 7.72382 3.54775 7.54641C3.7393 7.369 3.88996 7.15204 3.98929 6.91058C4.08861 6.66912 4.13422 6.40895 4.12294 6.1481C4.11167 5.88726 4.04379 5.63199 3.924 5.4L3.411 4.401L4.401 3.411L5.4 3.924C5.63199 4.04379 5.88726 4.11167 6.1481 4.12294C6.40895 4.13422 6.66912 4.08861 6.91058 3.98929C7.15204 3.88996 7.369 3.7393 7.54641 3.54775C7.72382 3.3562 7.85744 3.12835 7.938 2.88L8.298 1.8H9.702L10.062 2.88C10.1426 3.12835 10.2762 3.3562 10.4536 3.54775C10.631 3.7393 10.848 3.88996 11.0894 3.98929C11.3309 4.08861 11.5911 4.13422 11.8519 4.12294C12.1127 4.11167 12.368 4.04379 12.6 3.924L13.626 3.411L14.616 4.401L14.076 5.4C13.961 5.6308 13.897 5.88361 13.8882 6.14132C13.8794 6.39903 13.9261 6.65562 14.0251 6.89371C14.124 7.13181 14.273 7.34586 14.462 7.52137C14.6509 7.69688 14.8753 7.82976 15.12 7.911L16.2 8.271V9.702ZM9 5.4C8.28799 5.4 7.59197 5.61114 6.99995 6.00671C6.40793 6.40228 5.94651 6.96453 5.67403 7.62234C5.40156 8.28015 5.33027 9.00399 5.46917 9.70232C5.60808 10.4007 5.95095 11.0421 6.45442 11.5456C6.95789 12.0491 7.59934 12.3919 8.29768 12.5308C8.99601 12.6697 9.71985 12.5984 10.3777 12.326C11.0355 12.0535 11.5977 11.5921 11.9933 11.0001C12.3889 10.408 12.6 9.71201 12.6 9C12.6 8.04522 12.2207 7.12955 11.5456 6.45442C10.8705 5.77929 9.95478 5.4 9 5.4ZM9 10.8C8.64399 10.8 8.29598 10.6944 7.99997 10.4966C7.70397 10.2989 7.47325 10.0177 7.33702 9.68883C7.20078 9.35992 7.16513 8.998 7.23459 8.64884C7.30404 8.29967 7.47547 7.97894 7.72721 7.72721C7.97894 7.47547 8.29967 7.30404 8.64884 7.23459C8.998 7.16513 9.35992 7.20078 9.68883 7.33702C10.0177 7.47325 10.2989 7.70397 10.4966 7.99997C10.6944 8.29598 10.8 8.64399 10.8 9C10.8 9.47739 10.6104 9.93523 10.2728 10.2728C9.93523 10.6104 9.47739 10.8 9 10.8Z" fill="#612D1C"/>
</svg>
