<svg width="21" height="18" viewBox="0 0 21 18" fill="none" xmlns="http://www.w3.org/2000/svg">
<path id="Vector" d="M14.6465 8.97891V8.4375V7.3125C14.6465 7.00313 14.3934 6.75 14.084 6.75H12.959H12.3965H10.7617C8.97227 6.75 7.46055 7.92773 6.9543 9.54844C6.83828 9.21797 6.77148 8.85234 6.77148 8.4375C6.77148 6.26133 8.53281 4.5 10.709 4.5H12.3965H12.959H14.084C14.3934 4.5 14.6465 4.24687 14.6465 3.9375V2.8125V2.27109L18.373 5.625L14.6465 8.97891ZM12.3965 8.4375H12.959V10.125C12.959 10.7473 13.4617 11.25 14.084 11.25H14.2141C14.4918 11.25 14.759 11.148 14.9664 10.9617L19.8531 6.56367C20.1203 6.32461 20.2715 5.98359 20.2715 5.625C20.2715 5.26641 20.1203 4.92539 19.8531 4.68633L14.9945 0.312891C14.7695 0.1125 14.4813 0 14.1789 0C13.5039 0 12.959 0.544922 12.959 1.21992V2.8125H12.3965H11.2715H10.709C7.60117 2.8125 5.08398 5.32969 5.08398 8.4375C5.08398 10.5609 6.30039 11.9215 7.33047 12.6879C7.53789 12.8426 7.73477 12.9727 7.91758 13.0816C8.07227 13.1766 8.21641 13.2539 8.33594 13.3137C8.45547 13.3734 8.55391 13.4191 8.62422 13.4508C8.70156 13.4859 8.78594 13.5 8.87383 13.5H8.96172C9.30625 13.5 9.5875 13.2188 9.5875 12.8742C9.5875 12.6 9.40117 12.3574 9.17969 12.1887C9.16562 12.1781 9.15508 12.1711 9.14102 12.1605C9.08125 12.1219 9.02148 12.0727 8.96523 12.0164C8.93711 11.9883 8.90547 11.9602 8.87734 11.925C8.84922 11.8898 8.82109 11.8582 8.79297 11.823C8.72969 11.7352 8.66992 11.6367 8.61719 11.5242C8.52578 11.3133 8.46602 11.0566 8.46602 10.7367C8.46602 9.46758 9.49609 8.43398 10.7688 8.43398H11.2715H12.3965V8.4375ZM3.11523 1.125C1.71602 1.125 0.583984 2.25703 0.583984 3.65625V15.4688C0.583984 16.868 1.71602 18 3.11523 18H14.9277C16.327 18 17.459 16.868 17.459 15.4688V13.2188C17.459 12.7512 17.0828 12.375 16.6152 12.375C16.1477 12.375 15.7715 12.7512 15.7715 13.2188V15.4688C15.7715 15.9363 15.3953 16.3125 14.9277 16.3125H3.11523C2.64766 16.3125 2.27148 15.9363 2.27148 15.4688V3.65625C2.27148 3.18867 2.64766 2.8125 3.11523 2.8125H5.36523C5.83281 2.8125 6.20898 2.43633 6.20898 1.96875C6.20898 1.50117 5.83281 1.125 5.36523 1.125H3.11523Z" fill="black"/>
</svg>
