<svg width="82" height="82" viewBox="0 0 82 82" fill="none" xmlns="http://www.w3.org/2000/svg">
<path d="M81.4569 43.3153C82.181 41.867 82.181 40.1408 81.4569 38.6925L79.1826 34.1479C78.9634 33.7095 78.8656 33.2163 78.9008 32.7231L79.2609 27.654C79.3744 26.0413 78.7207 24.4481 77.4916 23.3834L73.6516 20.0562C73.2837 19.7352 73.0019 19.3164 72.8453 18.8506L71.2404 14.0281C70.7276 12.4937 69.5063 11.2724 67.9719 10.7596L63.1533 9.15471C62.6875 8.99814 62.2687 8.72022 61.9477 8.34835L58.6205 4.50837C57.5636 3.28317 55.9626 2.62556 54.3499 2.73907L49.2808 3.0992C48.7876 3.13442 48.2983 3.03657 47.856 2.81736L43.3114 0.543118C41.8631 -0.181039 40.1369 -0.181039 38.6886 0.543118L34.144 2.81736C33.7056 3.03657 33.2124 3.13442 32.7192 3.0992L27.6501 2.73907C26.0374 2.62556 24.4403 3.28317 23.3795 4.50837L20.0523 8.34835C19.7313 8.72022 19.3125 8.99814 18.8467 9.15471L14.0281 10.7596C12.4937 11.2724 11.2724 12.4937 10.7596 14.0281L9.15471 18.8467C8.99814 19.3125 8.72022 19.7313 8.34835 20.0523L4.50837 23.3795C3.28709 24.4403 2.62556 26.0374 2.73907 27.6501L3.0992 32.7192C3.13442 33.2085 3.03657 33.7017 2.81736 34.144L0.543118 38.6886C-0.181039 40.1369 -0.181039 41.8631 0.543118 43.3114L2.81736 47.856C3.03657 48.2944 3.13442 48.7876 3.0992 49.2769L2.73907 54.346C2.62164 55.9587 3.28317 57.5558 4.50837 58.6166L8.34835 61.9438C8.72022 62.2648 8.99814 62.6836 9.15471 63.1494L10.7596 67.9719C11.014 68.7391 11.4485 69.428 12.0083 69.9917C12.568 70.5515 13.2609 70.986 14.0281 71.2404L18.8506 72.8453C19.3164 73.0019 19.7352 73.2798 20.0562 73.6516L23.3834 77.4916C24.4442 78.7207 26.0413 79.3744 27.654 79.2609L32.7231 78.9008C33.2124 78.8656 33.7056 78.9634 34.144 79.1826L38.6886 81.4569C40.1369 82.181 41.8631 82.181 43.3114 81.4569L47.856 79.1826C48.2944 78.9634 48.7876 78.8656 49.2808 78.9008L54.3499 79.2609C55.9626 79.3744 57.5597 78.7168 58.6205 77.4916L61.9477 73.6516C62.2687 73.2798 62.6875 73.0019 63.1533 72.8453L67.9719 71.2404C69.5063 70.7276 70.7276 69.5063 71.2404 67.9719L72.8453 63.1533C73.0019 62.6875 73.2798 62.2687 73.6516 61.9477L77.4916 58.6205C78.7129 57.5597 79.3744 55.9626 79.2609 54.3499L78.9008 49.2808C78.8656 48.7915 78.9634 48.2983 79.1826 47.8599L81.4569 43.3153ZM77.0845 46.807C76.6735 47.6251 76.4935 48.5371 76.56 49.4491L76.9201 54.5182C76.9828 55.399 76.6226 56.268 75.9572 56.8473L72.1172 60.1745C71.4283 60.7734 70.9077 61.5484 70.6219 62.4135L69.017 67.236C68.7391 68.0737 68.0737 68.7391 67.236 69.017L62.4135 70.6219C61.5445 70.9116 60.7734 71.4283 60.1745 72.1172L56.8473 75.9572C56.268 76.6226 55.399 76.9828 54.5182 76.9201L49.4531 76.56C48.541 76.4935 47.629 76.6774 46.8109 77.0845L42.2663 79.3588C41.4795 79.7541 40.5361 79.7541 39.7454 79.3588L35.2009 77.0845C34.3828 76.6774 33.4707 76.4935 32.5587 76.56L27.4896 76.9201C26.6088 76.9828 25.7359 76.6187 25.1605 75.9572L21.8333 72.1172C21.2344 71.4283 20.4594 70.9077 19.5943 70.6219L14.7718 69.017C13.9341 68.7391 13.2687 68.0737 12.9908 67.236L11.3859 62.4135C11.1354 61.662 10.7126 60.9809 10.1568 60.4211C10.0707 60.335 9.98456 60.2528 9.89061 60.1745L6.05062 56.8473C5.39301 56.2719 5.02506 55.399 5.08769 54.5182L5.44781 49.4491C5.51436 48.5371 5.33038 47.6251 4.92329 46.807L2.64904 42.2624C2.25369 41.4717 2.25369 40.5322 2.64904 39.7415L4.92329 35.197C5.33038 34.3789 5.51436 33.4668 5.44781 32.5548L5.08769 27.4857C5.02506 26.6049 5.38518 25.7359 6.05062 25.1566L9.89061 21.8294C10.5795 21.2305 11.1002 20.4555 11.3859 19.5904L12.9908 14.7718C13.2687 13.9341 13.9341 13.2687 14.7718 12.9908L19.5904 11.3859C20.4555 11.0962 21.2305 10.5795 21.8294 9.89061L25.1566 6.05062C25.7359 5.38518 26.6049 5.02506 27.4857 5.08769L32.5548 5.44781C33.4668 5.51436 34.3789 5.33038 35.197 4.92329L39.7415 2.64904C40.5322 2.25369 41.4717 2.25369 42.2624 2.64904L46.807 4.92329C47.6251 5.33038 48.5371 5.51436 49.4491 5.44781L54.5182 5.08769C55.399 5.02506 56.2719 5.3891 56.8473 6.05062L60.1745 9.89061C60.7734 10.5795 61.5484 11.1002 62.4135 11.3859L67.2321 12.9908C68.0698 13.2687 68.7352 13.9341 69.0131 14.7718L70.618 19.5904C70.9077 20.4555 71.4205 21.2305 72.1133 21.8294L75.9533 25.1566C76.6109 25.732 76.9789 26.6049 76.9162 27.4857L76.5561 32.5548C76.4896 33.4668 76.6735 34.3789 77.0806 35.197L79.3549 39.7415C79.7502 40.5322 79.7502 41.4717 79.3549 42.2624L77.0806 46.807H77.0845Z" fill="black"/>
<path d="M23.2308 14.4156C23.6065 14.7914 24.2054 14.8736 24.6791 14.5839C32.1203 9.97673 41.229 8.73588 49.6762 11.1784C50.2986 11.3585 50.9523 10.9984 51.1323 10.376C51.3124 9.75361 50.9523 9.09991 50.3299 8.91985C41.2486 6.2894 31.4509 7.6242 23.446 12.5837C22.8941 12.9242 22.7258 13.6484 23.0664 14.2003C23.1172 14.2786 23.172 14.3491 23.2347 14.4117L23.2308 14.4156Z" fill="black"/>
<path d="M62.9615 62.9576C50.8544 75.0647 31.1573 75.0647 19.0502 62.9576C6.9431 50.8505 6.9431 31.1534 19.0502 19.0463C19.5082 18.5883 19.5082 17.8446 19.0502 17.3866C18.5922 16.9286 17.8485 16.9286 17.3905 17.3866C4.36745 30.4097 4.36745 51.5981 17.3905 64.6212C30.4136 77.6443 51.6021 77.6443 64.6251 64.6212C65.0831 64.1632 65.0831 63.4195 64.6251 62.9615C64.1672 62.5035 63.4234 62.5035 62.9654 62.9615L62.9615 62.9576Z" fill="black"/>
<path d="M62.9615 17.3866C62.5035 17.8446 62.5035 18.5883 62.9615 19.0463C73.1036 29.1884 75.0021 44.8224 67.5844 57.0743C67.2986 57.548 67.3848 58.139 67.7566 58.5109C67.8232 58.5774 67.8975 58.6362 67.9797 58.687C68.5356 59.0237 69.2558 58.8475 69.5924 58.2917C77.5738 45.1159 75.5305 28.2959 64.6251 17.3866C64.1672 16.9286 63.4234 16.9286 62.9654 17.3866H62.9615Z" fill="black"/>
<path d="M55.1837 13.3666C56.7925 14.1925 58.3426 15.1711 59.787 16.271C60.3037 16.6625 61.0396 16.5646 61.431 16.0479C61.8225 15.5312 61.7285 14.7953 61.2079 14.4039C59.6539 13.2217 57.9864 12.1688 56.2562 11.2802C55.6808 10.9827 54.9723 11.2098 54.6748 11.7891C54.436 12.2549 54.5378 12.8068 54.8901 13.1552C54.9762 13.2413 55.0741 13.3118 55.1837 13.3705L55.1837 13.3666Z" fill="black"/>
<path d="M15.1476 35.6393L17.5549 38.0466L14.5644 41.0372C14.1064 41.4952 14.1064 42.2389 14.5644 42.6969L39.311 67.4435C39.7689 67.9014 40.5127 67.9014 40.9706 67.4435L43.9612 64.4529L46.3685 66.8602C46.8265 67.3182 47.5703 67.3182 48.0282 66.8602L54.5065 60.382C54.9645 59.924 54.9645 59.1803 54.5065 58.7223L43.8751 48.0909C50.8544 43.7577 58.1155 38.0936 59.9475 36.2656C63.8618 32.3512 63.8618 25.9826 59.9475 22.0682C56.0331 18.1538 49.6644 18.1538 45.7501 22.0682C43.9221 23.8962 38.258 31.1613 33.9248 38.1406L23.2934 27.5092C22.8354 27.0512 22.0917 27.0512 21.6337 27.5092L15.1554 33.9874C14.6974 34.4454 14.6974 35.1891 15.1554 35.6471L15.1476 35.6393ZM40.1408 64.95L17.0578 41.867L19.2185 39.7063L42.3015 62.7893L40.1408 64.95ZM47.4058 23.724C50.4043 20.7256 55.2855 20.7256 58.2839 23.724C61.2823 26.7224 61.2823 31.6036 58.2839 34.602C56.4793 36.4065 49.136 42.1097 42.1684 46.3842L35.6275 39.8433C39.8981 32.8757 45.6052 25.5285 47.4098 23.7279L47.4058 23.724ZM22.4557 29.9917L52.0166 59.5525L47.2023 64.3668L17.641 34.8094L22.4557 29.9948L22.4557 29.9917Z" fill="black"/>
</svg>
