<svg width="97" height="24" viewBox="0 0 97 24" fill="none" xmlns="http://www.w3.org/2000/svg">
<path d="M9.288 10.952C8.98933 10.952 8.63733 10.9093 8.232 10.824C7.82667 10.7387 7.42133 10.6 7.016 10.408C6.84533 10.1307 6.71733 9.88533 6.632 9.672C6.54667 9.43733 6.504 9.192 6.504 8.936C6.504 8.40267 6.51467 8.01867 6.536 7.784C6.55733 7.528 6.57867 7.34667 6.6 7.24C6.64267 7.112 6.67467 7.016 6.696 6.952C6.71733 6.86667 6.728 6.70667 6.728 6.472C6.728 6.28 6.70667 6.06667 6.664 5.832C6.62133 5.576 6.6 5.26667 6.6 4.904C6.6 4.648 6.62133 4.37067 6.664 4.072C6.70667 3.77333 6.76 3.48533 6.824 3.208C6.888 2.90933 6.952 2.65333 7.016 2.44C7.08 2.20533 7.13333 2.03467 7.176 1.928C7.56 1.88533 7.95467 1.87467 8.36 1.896C8.78667 1.91733 9.128 1.864 9.384 1.736L11.112 1.448C11.4747 1.384 11.7733 1.34133 12.008 1.32C12.2427 1.27733 12.4347 1.23467 12.584 1.192C13.288 1.23467 13.64 1.82133 13.64 2.952C13.64 3.528 13.4587 3.912 13.096 4.104L11.304 4.424C11.112 4.424 10.9413 4.43467 10.792 4.456C10.664 4.456 10.5467 4.46667 10.44 4.488C10.3333 4.50933 10.216 4.53067 10.088 4.552C9.96 4.57333 9.8 4.59467 9.608 4.616C9.50133 4.97867 9.448 5.34133 9.448 5.704C9.448 5.81067 9.448 5.928 9.448 6.056C9.448 6.16267 9.46933 6.28 9.512 6.408C9.46933 6.62133 9.43733 6.90933 9.416 7.272C9.416 7.61333 9.416 7.912 9.416 8.168C9.65067 8.18933 9.90667 8.21067 10.184 8.232C10.4613 8.232 10.7387 8.232 11.016 8.232C11.3147 8.232 11.528 8.232 11.656 8.232C11.8053 8.21067 11.9547 8.2 12.104 8.2C12.168 8.2 12.2427 8.2 12.328 8.2C12.4347 8.2 12.552 8.21067 12.68 8.232C12.8507 8.21067 13.096 8.17867 13.416 8.136C13.7573 8.072 14.056 8.04 14.312 8.04C14.4613 8.12533 14.664 8.30667 14.92 8.584C15.176 8.86133 15.304 9.14933 15.304 9.448C15.304 9.81067 15.08 10.2267 14.632 10.696C14.12 10.8027 13.5867 10.8987 13.032 10.984C12.4773 11.0693 11.9013 11.112 11.304 11.112C11.3467 11.1333 11.3893 11.2187 11.432 11.368C11.4747 11.496 11.5067 11.656 11.528 11.848C11.5707 12.04 11.6027 12.2533 11.624 12.488C11.6453 12.7013 11.656 12.904 11.656 13.096C11.656 13.3093 11.6453 13.4693 11.624 13.576V13.8C11.624 13.9707 11.6133 14.1627 11.592 14.376C11.592 14.5893 11.592 14.792 11.592 14.984L14.152 15.112C14.9627 15.1333 15.72 15.1547 16.424 15.176C17.1493 15.1973 17.7787 15.2613 18.312 15.368C18.8667 15.4533 19.2933 15.6133 19.592 15.848C19.912 16.0827 20.072 16.424 20.072 16.872C20.072 17.2987 19.9867 17.64 19.816 17.896C19.6667 18.152 19.3573 18.28 18.888 18.28C18.696 18.28 18.4827 18.28 18.248 18.28C18.0133 18.2587 17.7787 18.2373 17.544 18.216C17.3307 18.1947 17.1173 18.1733 16.904 18.152C16.712 18.1307 16.5627 18.1093 16.456 18.088C16.392 18.1093 16.2853 18.12 16.136 18.12C15.8373 18.12 15.4533 18.0987 14.984 18.056C14.536 17.992 14.0347 17.96 13.48 17.96H12.904C12.8827 17.96 12.712 17.96 12.392 17.96C12.0933 17.9387 11.752 17.928 11.368 17.928C10.984 17.9067 10.6 17.8853 10.216 17.864C9.85333 17.8427 9.608 17.8213 9.48 17.8C9.37333 17.8213 9.14933 17.8427 8.808 17.864C8.488 17.8853 8.136 17.9067 7.752 17.928C7.38933 17.9493 7.03733 17.9707 6.696 17.992C6.376 17.992 6.16267 17.992 6.056 17.992H5.864H4.776C4.60533 17.992 4.44533 17.992 4.296 17.992C4.14667 17.992 4.008 17.9813 3.88 17.96L2.44 18.056C1.58667 18.056 1 17.9493 0.68 17.736C0.36 17.5227 0.2 17.2027 0.2 16.776C0.2 16.2427 0.306667 15.8693 0.52 15.656C0.754667 15.4427 1.04267 15.304 1.384 15.24C1.74667 15.176 2.13067 15.1547 2.536 15.176C2.96267 15.176 3.35733 15.1333 3.72 15.048H5.864C6.504 15.048 7.05867 15.0373 7.528 15.016C7.99733 14.9947 8.38133 14.984 8.68 14.984C8.68 14.7707 8.66933 14.5893 8.648 14.44C8.648 14.2693 8.648 14.1093 8.648 13.96V13.704C8.584 13.448 8.552 13.1173 8.552 12.712C8.552 12.264 8.56267 11.9227 8.584 11.688C8.62667 11.432 8.86133 11.1867 9.288 10.952ZM49.682 9.096L47.858 9.448C47.5593 9.49067 47.282 9.53333 47.026 9.576C46.77 9.59733 46.5567 9.608 46.386 9.608H46.162L44.914 9.736C44.594 9.77867 44.306 9.8 44.05 9.8C43.794 9.8 43.57 9.82133 43.378 9.864C43.3353 10.4613 43.2927 11.016 43.25 11.528C43.2073 12.0187 43.122 12.4453 42.994 12.808C42.8873 13.1707 42.7167 13.4587 42.482 13.672C42.2473 13.864 41.9273 13.96 41.522 13.96C41.1167 13.96 40.7647 13.896 40.466 13.768C40.1887 13.64 40.05 13.3627 40.05 12.936C40.05 12.7867 40.0607 12.6053 40.082 12.392C40.1033 12.1787 40.1247 11.9653 40.146 11.752C40.1673 11.5173 40.1887 11.304 40.21 11.112C40.2527 10.92 40.2847 10.76 40.306 10.632C40.306 10.5893 40.2953 10.536 40.274 10.472C40.274 10.408 40.274 10.344 40.274 10.28C40.274 10.152 40.274 9.98133 40.274 9.768C40.2953 9.55467 40.306 9.352 40.306 9.16C40.3273 8.94667 40.338 8.75467 40.338 8.584C40.3593 8.41333 40.37 8.296 40.37 8.232V8.104C40.3487 7.80533 40.3487 7.464 40.37 7.08C40.4127 6.696 40.434 6.376 40.434 6.12C40.434 5.77867 40.402 5.34133 40.338 4.808C40.274 4.27467 40.1673 3.63467 40.018 2.888L39.826 1.992C39.7833 1.88533 39.7513 1.77867 39.73 1.672C39.7087 1.56533 39.698 1.45867 39.698 1.352C39.698 0.583999 40.2527 0.199999 41.362 0.199999C41.9167 0.199999 42.3647 0.381332 42.706 0.743999C42.7913 0.957333 42.8767 1.256 42.962 1.64C43.0687 2.024 43.154 2.42933 43.218 2.856C43.282 3.28267 43.3353 3.72 43.378 4.168C43.4207 4.59467 43.442 4.968 43.442 5.288C43.442 5.39467 43.4313 5.48 43.41 5.544C43.41 5.608 43.41 5.66133 43.41 5.704C43.4527 5.81067 43.474 5.91733 43.474 6.024C43.474 6.13067 43.474 6.25867 43.474 6.408V6.92C43.794 6.92 44.082 6.90933 44.338 6.888C44.594 6.84533 44.85 6.80267 45.106 6.76C45.362 6.696 45.6287 6.65333 45.906 6.632C46.1833 6.58933 46.4927 6.568 46.834 6.568H47.122C47.2927 6.52533 47.5167 6.49333 47.794 6.472C48.0713 6.42933 48.3487 6.408 48.626 6.408C48.7753 6.408 48.946 6.42933 49.138 6.472C49.3513 6.49333 49.5433 6.55733 49.714 6.664C49.906 6.77067 50.0553 6.94133 50.162 7.176C50.29 7.41067 50.354 7.73067 50.354 8.136C50.354 8.52 50.13 8.84 49.682 9.096ZM36.786 8.904C36.8287 9.07467 36.85 9.20267 36.85 9.288C36.85 9.45867 36.7967 9.62933 36.69 9.8C36.5833 9.97067 36.466 10.1307 36.338 10.28C36.21 10.4293 36.0713 10.568 35.922 10.696C35.794 10.8027 35.698 10.8667 35.634 10.888C35.2713 10.8027 34.9513 10.664 34.674 10.472C34.3967 10.2587 34.1087 10.0133 33.81 9.736C33.618 9.62933 33.49 9.48 33.426 9.288C33.3833 9.096 33.2127 8.89333 32.914 8.68C32.8073 8.616 32.7327 8.57333 32.69 8.552C32.6473 8.53067 32.5727 8.456 32.466 8.328C32.3807 8.47733 32.274 8.63733 32.146 8.808C32.0393 8.97867 31.9647 9.128 31.922 9.256C31.8367 9.29867 31.7193 9.39467 31.57 9.544C31.442 9.69333 31.3033 9.864 31.154 10.056C31.026 10.2267 30.9087 10.3973 30.802 10.568C30.6953 10.7387 30.6313 10.8773 30.61 10.984C30.162 11.6027 29.8313 12.04 29.618 12.296C29.4047 12.552 29.1273 12.68 28.786 12.68C28.5727 12.68 28.37 12.6267 28.178 12.52C27.986 12.392 27.8153 12.264 27.666 12.136C27.5167 11.9867 27.3887 11.848 27.282 11.72C27.1967 11.5707 27.154 11.464 27.154 11.4C27.1967 11.016 27.3567 10.6107 27.634 10.184C27.9113 9.736 28.1673 9.34133 28.402 9L30.13 6.408C30.258 6.30133 30.418 6.12 30.61 5.864C30.802 5.608 30.994 5.36267 31.186 5.128C31.0153 5.08533 30.834 5.05333 30.642 5.032C30.4713 4.98933 30.3007 4.968 30.13 4.968H30.002C29.746 4.88267 29.49 4.84 29.234 4.84H28.658C28.3593 4.84 28.05 4.808 27.73 4.744C27.41 4.68 27.0047 4.59467 26.514 4.488C26.2793 4.08267 26.162 3.72 26.162 3.4C26.162 3.208 26.2047 3.02667 26.29 2.856C26.3967 2.664 26.514 2.504 26.642 2.376C26.77 2.22667 26.898 2.10933 27.026 2.024C27.154 1.91733 27.25 1.85333 27.314 1.832C28.0607 1.832 28.6687 1.85333 29.138 1.896C29.6287 1.91733 30.0447 1.96 30.386 2.024C30.7487 2.088 31.0687 2.152 31.346 2.216C31.6447 2.28 31.9753 2.344 32.338 2.408H32.562C32.9673 2.408 33.362 2.49333 33.746 2.664C34.13 2.83467 34.4927 3.03733 34.834 3.272C34.9193 3.54933 34.962 3.848 34.962 4.168C34.962 4.616 34.8873 4.97867 34.738 5.256C34.5887 5.512 34.418 5.8 34.226 6.12C34.7167 6.67467 35.09 7.06933 35.346 7.304C35.602 7.51733 35.8047 7.67733 35.954 7.784C36.1033 7.89067 36.2313 8.008 36.338 8.136C36.4447 8.264 36.594 8.52 36.786 8.904ZM40.306 19.944C40.306 20.0507 40.2527 20.2213 40.146 20.456C40.0607 20.6693 39.9433 20.904 39.794 21.16C39.6447 21.4373 39.474 21.7147 39.282 21.992C39.1113 22.2907 38.9513 22.5467 38.802 22.76C38.2047 22.9307 37.6287 23.08 37.074 23.208C36.5407 23.336 36.05 23.4 35.602 23.4C35.3247 23.4 35.0793 23.368 34.866 23.304C34.7167 23.2613 34.514 23.144 34.258 22.952C34.0233 22.76 33.778 22.5467 33.522 22.312C33.266 22.0773 33.042 21.8533 32.85 21.64C32.658 21.4267 32.53 21.2773 32.466 21.192C32.3807 20.7653 32.306 20.3707 32.242 20.008C32.178 19.624 32.146 19.2507 32.146 18.888C32.146 18.6533 32.146 18.44 32.146 18.248C32.1673 18.056 32.21 17.864 32.274 17.672C32.3593 17.48 32.4767 17.2773 32.626 17.064C32.7753 16.8507 32.978 16.616 33.234 16.36C33.4473 16.1467 33.5967 15.9867 33.682 15.88C33.7887 15.752 33.874 15.6667 33.938 15.624C34.0233 15.56 34.1193 15.5173 34.226 15.496C34.354 15.4747 34.5673 15.4533 34.866 15.432C35.1433 15.4107 35.3567 15.3893 35.506 15.368C35.6553 15.3253 35.7727 15.2933 35.858 15.272C35.9433 15.2293 36.0073 15.1973 36.05 15.176C36.0927 15.1547 36.1567 15.144 36.242 15.144C36.4127 15.144 36.594 15.1653 36.786 15.208C36.978 15.2507 37.1913 15.304 37.426 15.368C37.938 15.496 38.3113 15.624 38.546 15.752C38.802 15.8587 39.0047 15.9973 39.154 16.168C39.3247 16.3173 39.474 16.5093 39.602 16.744C39.7513 16.9787 39.9647 17.2773 40.242 17.64C40.242 17.6827 40.2313 17.7253 40.21 17.768C40.21 17.8107 40.21 17.8533 40.21 17.896C40.21 18.088 40.2313 18.3653 40.274 18.728C40.3167 19.0693 40.338 19.3573 40.338 19.592C40.338 19.656 40.3273 19.72 40.306 19.784C40.306 19.848 40.306 19.9013 40.306 19.944ZM37.298 18.664C37.2767 18.5573 37.1593 18.4293 36.946 18.28C36.754 18.1093 36.498 18.024 36.178 18.024C36.0073 18.024 35.8047 18.0773 35.57 18.184C35.3353 18.2907 35.1967 18.5467 35.154 18.952C35.1753 19.2507 35.2287 19.5493 35.314 19.848C35.4207 20.1467 35.6233 20.36 35.922 20.488C36.114 20.4667 36.2953 20.4667 36.466 20.488C36.6367 20.488 36.786 20.456 36.914 20.392C37.042 20.3067 37.138 20.1573 37.202 19.944C37.2873 19.7307 37.33 19.4 37.33 18.952C37.33 18.8667 37.3193 18.8133 37.298 18.792C37.298 18.7493 37.298 18.7067 37.298 18.664ZM73.82 11.624C73.8627 11.8373 73.884 12.0507 73.884 12.264C73.884 12.392 73.8733 12.5307 73.852 12.68C73.852 12.808 73.8413 12.9573 73.82 13.128L73.692 14.504C73.628 15.208 73.564 15.8053 73.5 16.296C73.4573 16.7867 73.3827 17.192 73.276 17.512C73.1693 17.832 73.0307 18.0667 72.86 18.216C72.6893 18.344 72.4547 18.408 72.156 18.408C71.5587 18.408 71.1533 18.2587 70.94 17.96C70.7267 17.6613 70.62 17.3413 70.62 17C70.62 16.6587 70.652 16.264 70.716 15.816C70.8013 15.368 70.844 14.9947 70.844 14.696V14.44C70.844 14.4187 70.844 14.344 70.844 14.216C70.8653 14.0667 70.876 13.896 70.876 13.704C70.8973 13.4907 70.908 13.2667 70.908 13.032C70.908 12.7973 70.908 12.584 70.908 12.392H70.588L68.156 12.68C68.156 13.3627 68.1347 14.024 68.092 14.664C68.0493 15.2827 67.9747 15.976 67.868 16.744L67.676 17.96C67.5693 18.216 67.4093 18.4293 67.196 18.6C66.9827 18.7493 66.7053 18.824 66.364 18.824C65.9587 18.824 65.6173 18.76 65.34 18.632C65.0627 18.4827 64.924 18.1947 64.924 17.768C64.924 17.64 64.924 17.4907 64.924 17.32C64.924 17.128 64.9453 16.9147 64.988 16.68L65.18 14.952C65.18 14.9093 65.1693 14.856 65.148 14.792C65.148 14.728 65.148 14.6533 65.148 14.568C65.148 14.4187 65.148 14.216 65.148 13.96C65.1693 13.704 65.18 13.4373 65.18 13.16C65.2013 12.8827 65.212 12.6373 65.212 12.424C65.2333 12.1893 65.244 12.04 65.244 11.976V11.848C65.2227 11.5493 65.2227 11.2187 65.244 10.856C65.2867 10.472 65.308 10.152 65.308 9.896C65.308 9.53333 65.276 9.10667 65.212 8.616C65.1693 8.104 65.0627 7.464 64.892 6.696L64.7 5.832C64.5933 5.512 64.54 5.256 64.54 5.064C64.54 4.38133 65.0307 4.04 66.012 4.04C66.4813 4.04 66.8653 4.21067 67.164 4.552C67.4627 4.872 67.6867 5.288 67.836 5.8C68.0067 6.312 68.1133 6.87733 68.156 7.496C68.22 8.11467 68.252 8.712 68.252 9.288V9.768C68.316 9.768 68.476 9.768 68.732 9.768C69.0093 9.74667 69.2973 9.71467 69.596 9.672C69.8947 9.62933 70.172 9.56533 70.428 9.48C70.7053 9.39467 70.876 9.26667 70.94 9.096C70.7693 8.648 70.6627 8.18933 70.62 7.72C70.5987 7.25067 70.588 6.80267 70.588 6.376C70.588 5.97067 70.7373 5.68267 71.036 5.512C71.3347 5.32 71.7293 5.224 72.22 5.224C72.7533 5.224 73.148 5.39467 73.404 5.736C73.468 6.22667 73.5427 6.728 73.628 7.24C73.7347 7.73067 73.788 8.168 73.788 8.552C73.788 8.744 73.7773 8.88267 73.756 8.968C73.8413 9.37333 73.884 9.78933 73.884 10.216C73.884 10.4507 73.8733 10.6853 73.852 10.92C73.8307 11.1547 73.82 11.3893 73.82 11.624ZM62.748 8.968C62.7053 9.58667 62.6413 10.1413 62.556 10.632C62.492 11.1227 62.3853 11.6027 62.236 12.072C62.108 12.52 61.9373 13 61.724 13.512C61.532 14.0027 61.2973 14.568 61.02 15.208C60.572 15.336 60.188 15.4 59.868 15.4C59.5053 15.4 59.2067 15.2933 58.972 15.08C58.7587 14.8667 58.5453 14.5787 58.332 14.216C58.4173 13.7893 58.524 13.4267 58.652 13.128C58.78 12.8293 58.908 12.5627 59.036 12.328C59.164 12.072 59.2707 11.8267 59.356 11.592C59.4413 11.3573 59.484 11.08 59.484 10.76C59.484 10.4613 59.516 10.2267 59.58 10.056C59.644 9.88533 59.676 9.71467 59.676 9.544V9.416L57.756 9.16C57.5853 9.90667 57.2867 10.5787 56.86 11.176C56.4547 11.7733 56.0387 12.3707 55.612 12.968C55.5693 13.096 55.4733 13.2453 55.324 13.416C55.196 13.5867 55.0467 13.7573 54.876 13.928C54.7053 14.0773 54.5347 14.2373 54.364 14.408C54.1933 14.5787 54.0547 14.728 53.948 14.856C53.756 14.8987 53.5747 14.9307 53.404 14.952C53.2333 14.9733 53.084 14.984 52.956 14.984C52.4653 14.984 52.1453 14.824 51.996 14.504C51.8467 14.184 51.708 13.8107 51.58 13.384C51.772 13.1067 51.964 12.8507 52.156 12.616C52.348 12.36 52.4973 12.168 52.604 12.04C52.6893 11.848 52.8067 11.688 52.956 11.56C53.1053 11.4107 53.2547 11.272 53.404 11.144C53.5533 10.9947 53.692 10.8453 53.82 10.696C53.9693 10.5253 54.0867 10.344 54.172 10.152C54.2787 9.896 54.3853 9.672 54.492 9.48C54.62 9.288 54.7053 9.10667 54.748 8.936C54.556 8.89333 54.3427 8.86133 54.108 8.84C53.8947 8.79733 53.6387 8.75467 53.34 8.712C53.0413 8.66933 52.6893 8.616 52.284 8.552C51.9 8.488 51.4413 8.40267 50.908 8.296C50.6733 7.89067 50.556 7.53867 50.556 7.24C50.556 7.048 50.5987 6.86667 50.684 6.696C50.7907 6.52533 50.908 6.376 51.036 6.248C51.164 6.09867 51.292 5.98133 51.42 5.896C51.548 5.78933 51.644 5.72533 51.708 5.704C51.964 5.704 52.1773 5.72533 52.348 5.768C52.54 5.78933 52.764 5.82133 53.02 5.864C53.276 5.88533 53.596 5.91733 53.98 5.96C54.364 5.98133 54.8653 6.01333 55.484 6.056L57.052 6.152C57.4787 6.19467 57.8627 6.25867 58.204 6.344C58.5667 6.408 58.9827 6.48267 59.452 6.568H59.772C60.1987 6.568 60.668 6.632 61.18 6.76C61.692 6.888 62.0973 7.03733 62.396 7.208C62.5453 7.44267 62.6413 7.688 62.684 7.944C62.7267 8.17867 62.748 8.41333 62.748 8.648V8.968ZM96.006 11.272C96.0487 11.3787 96.07 11.4853 96.07 11.592C96.07 11.6987 96.07 11.816 96.07 11.944C96.07 12.0507 96.07 12.168 96.07 12.296C96.07 12.4027 96.0593 12.52 96.038 12.648L95.878 13.864V14.216C95.878 15.304 95.7393 16.1253 95.462 16.68C95.206 17.2133 94.8433 17.48 94.374 17.48C93.8833 17.48 93.51 17.3413 93.254 17.064C93.0193 16.7653 92.902 16.456 92.902 16.136C92.902 15.7947 92.9127 15.5173 92.934 15.304C92.9767 15.0907 93.0193 14.856 93.062 14.6C93.1047 14.344 93.1367 14.024 93.158 13.64C93.2007 13.2347 93.222 12.6693 93.222 11.944C93.222 11.7733 93.2113 11.6453 93.19 11.56C93.19 11.4533 93.1793 11.3467 93.158 11.24C93.1367 11.112 93.1153 10.9627 93.094 10.792C93.094 10.6213 93.094 10.376 93.094 10.056C93.094 9.864 93.1047 9.69333 93.126 9.544C93.1473 9.37333 93.1793 9.224 93.222 9.096C93.1367 8.79733 93.094 8.43467 93.094 8.008C93.094 7.56 93.0513 7.25067 92.966 7.08C92.9447 6.84533 92.9233 6.58933 92.902 6.312C92.8807 6.01333 92.87 5.74667 92.87 5.512C92.87 5.064 93.0193 4.75467 93.318 4.584C93.6167 4.392 94.0007 4.296 94.47 4.296C94.9607 4.296 95.334 4.46667 95.59 4.808C95.654 5.29867 95.7287 5.8 95.814 6.312C95.9207 6.80267 95.974 7.24 95.974 7.624C95.974 7.816 95.9633 7.95467 95.942 8.04C95.9847 8.27467 96.0167 8.52 96.038 8.776C96.0593 9.01067 96.07 9.256 96.07 9.512C96.07 9.832 96.0593 10.152 96.038 10.472C96.0167 10.7707 96.006 11.0373 96.006 11.272ZM87.526 7.624C87.59 7.944 87.622 8.232 87.622 8.488C87.622 8.95733 87.4833 9.48 87.206 10.056C86.95 10.6107 86.694 11.0907 86.438 11.496C86.2887 11.816 86.086 12.2213 85.83 12.712C85.5953 13.1813 85.2647 13.672 84.838 14.184C84.7953 14.312 84.7207 14.4613 84.614 14.632C84.5073 14.8027 84.3793 14.9733 84.23 15.144C84.102 15.2933 83.9633 15.4533 83.814 15.624C83.686 15.7733 83.5793 15.912 83.494 16.04C83.1527 16.1253 82.822 16.168 82.502 16.168C82.2673 16.168 82.0753 16.1253 81.926 16.04C81.7767 15.9333 81.6487 15.8053 81.542 15.656C81.4567 15.5067 81.382 15.336 81.318 15.144C81.2753 14.952 81.222 14.7493 81.158 14.536C81.3927 14.1947 81.5847 13.9173 81.734 13.704C81.9047 13.4693 82.0433 13.2667 82.15 13.096C82.278 12.9253 82.3847 12.7653 82.47 12.616C82.5553 12.4667 82.6513 12.296 82.758 12.104C83.2273 11.6347 83.59 11.144 83.846 10.632C84.102 10.12 84.262 9.74667 84.326 9.512C84.134 9.46933 83.8993 9.42667 83.622 9.384C83.3447 9.32 83.0993 9.288 82.886 9.288H82.758C82.502 9.20267 82.246 9.16 81.99 9.16H81.414C81.1367 9.16 80.838 9.128 80.518 9.064C80.198 9 79.8033 8.91467 79.334 8.808C79.0993 8.40267 78.982 8.04 78.982 7.72C78.982 7.528 79.0247 7.34667 79.11 7.176C79.2167 6.984 79.334 6.824 79.462 6.696C79.59 6.568 79.718 6.46133 79.846 6.376C79.974 6.29067 80.0593 6.23733 80.102 6.216C80.8487 6.216 81.4567 6.23733 81.926 6.28C82.4167 6.30133 82.8327 6.344 83.174 6.408C83.5153 6.45067 83.8247 6.504 84.102 6.568C84.3793 6.632 84.6887 6.696 85.03 6.76C85.478 6.76 85.9047 6.84533 86.31 7.016C86.7153 7.16533 87.1207 7.368 87.526 7.624Z" fill="black"/>
</svg>
