<svg width="24" height="24" viewBox="0 0 24 24" fill="none" xmlns="http://www.w3.org/2000/svg">
<path d="M11.9965 21.5937H3.59896C3.28079 21.5937 2.97565 21.4673 2.75067 21.2424C2.5257 21.0174 2.3993 20.7123 2.3993 20.3941V3.59896C2.3993 3.28079 2.5257 2.97565 2.75067 2.75067C2.97565 2.5257 3.28079 2.3993 3.59896 2.3993H9.59722V5.99826C9.59722 6.95276 9.97639 7.86817 10.6513 8.54311C11.3263 9.21804 12.2417 9.59722 13.1962 9.59722H16.7951V10.7969C16.7951 11.115 16.9215 11.4202 17.1465 11.6452C17.3715 11.8701 17.6766 11.9965 17.9948 11.9965C18.313 11.9965 18.6181 11.8701 18.8431 11.6452C19.068 11.4202 19.1944 11.115 19.1944 10.7969V8.39757C19.1944 8.39757 19.1944 8.39756 19.1944 8.32559C19.1819 8.21538 19.1578 8.10681 19.1225 8.00168V7.89371C19.0648 7.77036 18.9878 7.65698 18.8945 7.55781L11.6966 0.359896C11.5974 0.266582 11.4841 0.189642 11.3607 0.131962C11.3249 0.126875 11.2885 0.126875 11.2527 0.131962C11.1309 0.0620715 10.9963 0.0172081 10.8569 0H3.59896C2.64445 0 1.72905 0.379175 1.05411 1.05411C0.379175 1.72905 0 2.64445 0 3.59896V20.3941C0 21.3486 0.379175 22.264 1.05411 22.9389C1.72905 23.6139 2.64445 23.993 3.59896 23.993H11.9965C12.3147 23.993 12.6198 23.8667 12.8448 23.6417C13.0698 23.4167 13.1962 23.1116 13.1962 22.7934C13.1962 22.4752 13.0698 22.1701 12.8448 21.9451C12.6198 21.7201 12.3147 21.5937 11.9965 21.5937ZM11.9965 4.09081L15.1036 7.19791H13.1962C12.878 7.19791 12.5729 7.07152 12.3479 6.84654C12.1229 6.62156 11.9965 6.31643 11.9965 5.99826V4.09081ZM5.99826 7.19791C5.68009 7.19791 5.37496 7.32431 5.14998 7.54928C4.925 7.77426 4.79861 8.0794 4.79861 8.39757C4.79861 8.71573 4.925 9.02087 5.14998 9.24585C5.37496 9.47083 5.68009 9.59722 5.99826 9.59722H7.19791C7.51608 9.59722 7.82122 9.47083 8.0462 9.24585C8.27117 9.02087 8.39757 8.71573 8.39757 8.39757C8.39757 8.0794 8.27117 7.77426 8.0462 7.54928C7.82122 7.32431 7.51608 7.19791 7.19791 7.19791H5.99826ZM23.6451 21.9416L22.2416 20.55C22.6902 19.767 22.8697 18.8584 22.7527 17.9636C22.6357 17.0687 22.2286 16.2369 21.5937 15.5955C21.0095 14.9905 20.2567 14.5754 19.4332 14.4044C18.6097 14.2334 17.7539 14.3143 16.9771 14.6367C16.2003 14.9591 15.5386 15.5079 15.0781 16.2117C14.6177 16.9156 14.38 17.7417 14.3958 18.5826C14.3917 19.3062 14.5768 20.0183 14.9328 20.6483C15.2888 21.2783 15.8033 21.8043 16.4253 22.1741C17.0473 22.5439 17.7552 22.7447 18.4787 22.7565C19.2022 22.7684 19.9163 22.5908 20.55 22.2416L21.9416 23.6451C22.0532 23.7576 22.1858 23.8468 22.332 23.9077C22.4782 23.9686 22.635 24 22.7934 24C22.9518 24 23.1086 23.9686 23.2547 23.9077C23.4009 23.8468 23.5336 23.7576 23.6451 23.6451C23.7576 23.5336 23.8468 23.4009 23.9077 23.2547C23.9686 23.1086 24 22.9518 24 22.7934C24 22.635 23.9686 22.4782 23.9077 22.332C23.8468 22.1858 23.7576 22.0532 23.6451 21.9416ZM19.8422 19.8422C19.4996 20.1645 19.047 20.3439 18.5766 20.3439C18.1063 20.3439 17.6536 20.1645 17.311 19.8422C16.9807 19.5061 16.7955 19.0538 16.7951 18.5826C16.7926 18.346 16.8381 18.1113 16.9289 17.8928C17.0196 17.6742 17.1537 17.4763 17.323 17.311C17.6428 16.9929 18.0717 16.8084 18.5226 16.7951C18.7652 16.7802 19.0082 16.8156 19.2364 16.899C19.4646 16.9825 19.6731 17.1122 19.8488 17.28C20.0246 17.4479 20.1637 17.6502 20.2575 17.8744C20.3514 18.0985 20.3979 18.3396 20.3941 18.5826C20.3842 19.059 20.1857 19.512 19.8422 19.8422ZM13.1962 11.9965H5.99826C5.68009 11.9965 5.37496 12.1229 5.14998 12.3479C4.925 12.5729 4.79861 12.878 4.79861 13.1962C4.79861 13.5143 4.925 13.8195 5.14998 14.0445C5.37496 14.2694 5.68009 14.3958 5.99826 14.3958H13.1962C13.5143 14.3958 13.8195 14.2694 14.0445 14.0445C14.2694 13.8195 14.3958 13.5143 14.3958 13.1962C14.3958 12.878 14.2694 12.5729 14.0445 12.3479C13.8195 12.1229 13.5143 11.9965 13.1962 11.9965ZM10.7969 19.1944C11.115 19.1944 11.4202 19.068 11.6452 18.8431C11.8701 18.6181 11.9965 18.313 11.9965 17.9948C11.9965 17.6766 11.8701 17.3715 11.6452 17.1465C11.4202 16.9215 11.115 16.7951 10.7969 16.7951H5.99826C5.68009 16.7951 5.37496 16.9215 5.14998 17.1465C4.925 17.3715 4.79861 17.6766 4.79861 17.9948C4.79861 18.313 4.925 18.6181 5.14998 18.8431C5.37496 19.068 5.68009 19.1944 5.99826 19.1944H10.7969Z" fill="#612D1C"/>
</svg>
