<svg width="25" height="24" viewBox="0 0 25 24" fill="none" xmlns="http://www.w3.org/2000/svg">
<path d="M23.1666 7.22008L15.1667 0.915623C14.4333 0.325982 13.4839 0 12.5 0C11.5161 0 10.5668 0.325982 9.83339 0.915623L1.83345 7.22008C1.40994 7.56056 1.07199 7.97824 0.842086 8.44531C0.612184 8.91237 0.49561 9.41811 0.500126 9.92884V20.4043C0.500126 21.3579 0.921551 22.2725 1.67169 22.9468C2.42183 23.6212 3.43924 24 4.5001 24H20.5C21.5608 24 22.5783 23.6212 23.3284 22.9468C24.0785 22.2725 24.5 21.3579 24.5 20.4043V9.91685C24.5026 9.40814 24.3851 8.90471 24.1552 8.43984C23.9254 7.97496 23.5884 7.55922 23.1666 7.22008ZM15.1667 21.6029H9.83339V15.61C9.83339 15.2922 9.97387 14.9873 10.2239 14.7625C10.474 14.5378 10.8131 14.4115 11.1667 14.4115H13.8334C14.187 14.4115 14.5261 14.5378 14.7762 14.7625C15.0262 14.9873 15.1667 15.2922 15.1667 15.61V21.6029ZM21.8333 20.4043C21.8333 20.7222 21.6928 21.027 21.4428 21.2518C21.1927 21.4766 20.8536 21.6029 20.5 21.6029H17.8333V15.61C17.8333 14.6564 17.4119 13.7418 16.6618 13.0675C15.9116 12.3932 14.8942 12.0143 13.8334 12.0143H11.1667C10.1059 12.0143 9.08845 12.3932 8.33831 13.0675C7.58817 13.7418 7.16675 14.6564 7.16675 15.61V21.6029H4.5001C4.14648 21.6029 3.80734 21.4766 3.5573 21.2518C3.30725 21.027 3.16677 20.7222 3.16677 20.4043V9.91685C3.16701 9.74667 3.20756 9.57849 3.28573 9.4235C3.36389 9.2685 3.47788 9.13025 3.6201 9.01793L11.62 2.72546C11.8634 2.5333 12.1762 2.42733 12.5 2.42733C12.8239 2.42733 13.1367 2.5333 13.38 2.72546L21.38 9.01793C21.5222 9.13025 21.6362 9.2685 21.7143 9.4235C21.7925 9.57849 21.8331 9.74667 21.8333 9.91685V20.4043Z" fill="#612D1C"/>
</svg>
