<svg width="25" height="24" viewBox="0 0 25 24" fill="none" xmlns="http://www.w3.org/2000/svg">
<path d="M22.2956 2.40336C21.0222 1.02302 19.334 0.183784 17.5379 0.0382817C15.7417 -0.107221 13.9571 0.450672 12.5085 1.6105C10.9824 0.380453 9.08295 -0.17731 7.19259 0.0495328C5.30224 0.276376 3.56141 1.27097 2.32066 2.83304C1.07991 4.39511 0.431414 6.40861 0.505752 8.46808C0.58009 10.5276 1.37174 12.48 2.7213 13.9323L11.6569 23.6155C11.7684 23.7374 11.901 23.8341 12.0472 23.9C12.1934 23.966 12.3501 24 12.5085 24C12.6668 24 12.8236 23.966 12.9697 23.9C13.1159 23.8341 13.2485 23.7374 13.36 23.6155L22.2956 13.9323C22.9945 13.1755 23.5489 12.2768 23.9271 11.2877C24.3053 10.2986 24.5 9.23848 24.5 8.16782C24.5 7.09716 24.3053 6.037 23.9271 5.04791C23.5489 4.05882 22.9945 3.16018 22.2956 2.40336ZM20.6045 12.0996L12.5085 20.86L4.41246 12.0996C3.69902 11.3233 3.21302 10.3359 3.01543 9.26136C2.81783 8.18684 2.91744 7.07301 3.30175 6.05959C3.68607 5.04618 4.33798 4.17831 5.1757 3.56486C6.01342 2.95141 6.99966 2.61969 8.01068 2.61132C9.36135 2.61491 10.6555 3.19925 11.6089 4.23603C11.7204 4.35785 11.8531 4.45455 11.9992 4.52054C12.1454 4.58652 12.3022 4.6205 12.4605 4.6205C12.6188 4.6205 12.7756 4.58652 12.9218 4.52054C13.0679 4.45455 13.2006 4.35785 13.3121 4.23603C14.2936 3.31434 15.5615 2.83117 16.8594 2.8843C18.1572 2.93744 19.3879 3.52291 20.3024 4.52222C21.217 5.52154 21.747 6.86005 21.7853 8.26685C21.8235 9.67365 21.3672 11.0437 20.5085 12.0996H20.6045Z" fill="#612D1C"/>
</svg>
